<?xml version="1.0" standalone="no"?>
<!DOCTYPE svg PUBLIC "-//W3C//DTD SVG 20010904//EN"
 "http://www.w3.org/TR/2001/REC-SVG-20010904/DTD/svg10.dtd">
<svg version="1.0" xmlns="http://www.w3.org/2000/svg"
 width="640.000000pt" height="640.000000pt" viewBox="0 0 640.000000 640.000000"
 preserveAspectRatio="xMidYMid meet">

<g transform="translate(0.000000,640.000000) scale(0.100000,-0.100000)"
fill="#000000" stroke="none">
<path d="M1760 3200 l0 -1440 1440 0 1440 0 0 1440 0 1440 -1440 0 -1440 0 0
-1440z m760 765 l0 -525 30 0 30 0 0 525 0 525 300 0 300 0 0 -765 0 -765
-330 0 -330 0 0 -520 0 -520 -295 0 -295 0 -2 1285 -3 1285 298 0 297 0 0
-525z m1970 -760 l0 -1285 -625 0 -625 0 0 240 0 240 329 0 c308 0 329 1 327
18 -3 16 -27 17 -329 20 l-327 2 0 1025 0 1025 625 0 625 0 0 -1285z m-1310
-785 l0 -500 -300 0 -300 0 0 500 0 500 300 0 300 0 0 -500z"/>
<path d="M3840 4013 c0 -2 0 -247 0 -545 l0 -543 21 -3 c12 -2 25 2 30 10 5 7
9 252 9 544 l0 532 -30 4 c-16 3 -30 3 -30 1z"/>
</g>
</svg>
