<?xml version="1.0" encoding="utf-8"?>
<!-- Generator: Adobe Illustrator 16.0.0, SVG Export Plug-In . SVG Version: 6.00 Build 0)  -->
<!DOCTYPE svg PUBLIC "-//W3C//DTD SVG 1.1//EN" "http://www.w3.org/Graphics/SVG/1.1/DTD/svg11.dtd">
<svg version="1.1" id="Layer_1" xmlns="http://www.w3.org/2000/svg" xmlns:xlink="http://www.w3.org/1999/xlink" x="0px" y="0px"
	 width="189.984px" height="33.004px" viewBox="0 0 189.984 33.004" enable-background="new 0 0 189.984 33.004"
	 xml:space="preserve">
<path fill="#ED2024" d="M47.748,10.854L37.359,1.234c-0.301-0.305-2.402-2.218-6.165-0.576C27.125,2.434,3.5,11.708,3.263,11.801
	c-0.094,0.036-0.177,0.088-0.25,0.151c-0.242,0.135-0.485,0.296-0.73,0.486c-2.669,2.076-3.01,5.295-0.956,9.067
	c2.771,5.086,9.521,10.825,13.126,11.399c0.231,0.036,0.452,0.052,0.656,0.045c0.052,0.02,0.106,0.034,0.162,0.044
	c0.141,0.022,0.288,0.007,0.428-0.049l29.266-11.843c0.105-0.042,0.2-0.106,0.279-0.188c0.064-0.065,1.558-1.635,1.229-3.716
	c-0.204-1.289-1.042-2.439-2.497-3.428l3.526-1.479c0.268-0.113,0.462-0.357,0.512-0.648C48.063,11.35,47.963,11.054,47.748,10.854z
	 M2.808,20.669c-1.643-3.017-1.473-5.325,0.501-6.861c2.312-1.796,4.214,0.425,4.421,0.681c0.017,0.021,0.036,0.042,0.054,0.062
	l0.929,0.965l-3.83,1.344c-0.399,0.14-0.627,0.566-0.525,0.983c0.049,0.203,1.284,5,8.162,8.518
	c1.729,0.885,3.586,1.913,3.721,2.925c0.082,0.605-0.459,1.335-1.04,1.931c-0.028,0-0.058,0.003-0.086,0.006
	C12.965,31.489,5.803,26.167,2.808,20.669z M42.089,14.568c1.645,0.857,2.603,1.854,2.771,2.881c0.165,1.004-0.438,1.88-0.68,2.184
	L17.727,30.339c0.145-0.434,0.188-0.858,0.132-1.277c-0.242-1.815-2.229-2.969-4.605-4.184c-4.651-2.379-6.442-5.383-7.044-6.728
	l3.77-1.324l7.295,7.568c0.241,0.25,0.608,0.327,0.927,0.193l23.88-10.025C42.084,14.565,42.087,14.567,42.089,14.568z
	 M18.083,22.773l-9.061-9.401c-0.365-0.45-0.921-0.962-1.612-1.354c6.815-2.682,21.278-8.391,24.451-9.775
	c2.847-1.243,4.241,0.15,4.291,0.201c0.017,0.018,0.033,0.035,0.051,0.051l9.416,8.719L18.083,22.773z"/>
<path fill="#ED2024" d="M32.765,13.608L26.01,6.652l7.657-3.197l7.05,6.8L32.765,13.608z"/>
<path fill="#ED2024" d="M29.064,13.237c0.174,0.442-0.038,0.944-0.472,1.121l-10.634,4.323c-0.434,0.176-0.927-0.039-1.101-0.48
	c-0.173-0.442,0.039-0.944,0.472-1.121l10.634-4.323c0.146-0.06,0.299-0.075,0.444-0.052C28.693,12.75,28.949,12.944,29.064,13.237z
	"/>
<path fill="#ED2024" d="M24.939,10.468l-10.634,4.324c-0.435,0.177-0.926-0.039-1.101-0.481c-0.174-0.441,0.039-0.943,0.473-1.121
	L24.31,8.868c0.146-0.06,0.3-0.075,0.445-0.052c0.286,0.045,0.541,0.239,0.656,0.532C25.585,9.79,25.373,10.292,24.939,10.468z"/>
<path fill="#ED2024" d="M63.377,13.801h5.456v5.669c-1.191,1.212-3.362,1.917-5.033,1.917c-4.399,0-7.012-2.796-7.012-7.058
	c0-3.929,2.593-7.057,6.704-7.057c1.921,0,3.228,0.509,4.322,1.388l-0.999,1.916C66.144,9.93,64.953,9.52,63.781,9.52
	c-2.593,0-4.495,1.759-4.495,4.809c0,2.914,1.825,4.81,4.552,4.81c1.038,0,2.286-0.45,2.786-0.938v-2.15h-3.247V13.801z"/>
<path fill="#ED2024" d="M79.669,7.271c3.995,0,7.011,2.796,7.011,7.057c0,4.106-3.016,7.058-7.011,7.058
	c-3.996,0-6.993-2.796-6.993-7.058C72.677,10.36,75.539,7.271,79.669,7.271z M79.669,19.138c2.824,0,4.514-2.111,4.514-4.81
	c0-2.834-1.979-4.809-4.514-4.809c-2.574,0-4.495,1.974-4.495,4.809C75.174,17.065,77.153,19.138,79.669,19.138z"/>
<path fill="#ED2024" d="M97.325,7.271c3.996,0,7.012,2.796,7.012,7.057c0,4.106-3.016,7.058-7.012,7.058s-6.992-2.796-6.992-7.058
	C90.333,10.36,93.195,7.271,97.325,7.271z M97.325,19.138c2.824,0,4.515-2.111,4.515-4.81c0-2.834-1.979-4.809-4.515-4.809
	c-2.574,0-4.495,1.974-4.495,4.809C92.83,17.065,94.809,19.138,97.325,19.138z"/>
<path fill="#ED2024" d="M108.987,7.486h0.25c0.807,0,2.728-0.059,3.707-0.059c5.379,0,7.549,3.147,7.549,6.764
	c0,3.852-2.574,7.019-7.703,7.019c-0.807,0-2.305-0.039-3.535-0.039h-0.269V7.486z M111.35,9.735v9.188
	c0.653,0.039,1.191,0.039,1.518,0.039c3.246,0,5.129-1.877,5.129-4.771c0-2.756-1.883-4.516-5.091-4.516
	C112.349,9.676,111.888,9.695,111.35,9.735z"/>
<path fill="#ED2024" d="M140.743,21.171l-7.396-9.481v9.481h-2.209V7.486h1.883l7.395,9.521V7.486h2.209v13.685H140.743z"/>
<path fill="#ED2024" d="M148.275,7.486h7.78v2.249h-5.417v3.401h4.841v2.248h-4.841v3.539h5.609v2.248h-7.972V7.486z"/>
<path fill="#ED2024" d="M174.364,21.171h-2.209l-3.246-9.892l-3.188,9.892h-2.229l-4.015-13.685h2.651l2.708,9.755l2.997-9.755
	h2.344l3.073,9.774l2.689-9.774h2.267L174.364,21.171z"/>
<path fill="#ED2024" d="M181.396,11.044c0-2.053,1.576-3.773,4.188-3.773c1.652,0,3.036,0.567,3.842,1.466l-1.268,1.799
	c-0.653-0.645-1.307-1.017-2.382-1.017c-1.171,0-1.882,0.606-1.882,1.505c0,2.834,6.09,1.935,6.09,6.49
	c0,2.307-1.979,3.871-4.496,3.871c-1.729,0-3.746-0.763-4.398-2.151l1.344-1.642c0.788,1.036,2.056,1.544,3.093,1.544
	c1.114,0,1.959-0.567,1.959-1.603C187.486,14.837,181.396,15.501,181.396,11.044z"/>
</svg>
