<?xml version="1.0" encoding="utf-8"?>
<!-- Generator: Adobe Illustrator 16.0.0, SVG Export Plug-In . SVG Version: 6.00 Build 0)  -->
<!DOCTYPE svg PUBLIC "-//W3C//DTD SVG 1.1//EN" "http://www.w3.org/Graphics/SVG/1.1/DTD/svg11.dtd">
<svg version="1.1" id="Layer_1" xmlns="http://www.w3.org/2000/svg" xmlns:xlink="http://www.w3.org/1999/xlink" x="0px" y="0px"
	 width="95.269px" height="14.667px" viewBox="0 0 95.269 14.667" enable-background="new 0 0 95.269 14.667" xml:space="preserve">
<path fill="#FFFFFF" d="M10.715,7.533H5.613v1.874h2.394v2.498c-0.198,0.191-0.489,0.352-0.872,0.481S6.244,12.58,5.613,12.58
	c-0.891,0-1.599-0.32-2.125-0.959S2.7,10.148,2.7,9.123V6.287c0-1.007,0.253-1.831,0.761-2.47c0.507-0.639,1.175-0.959,2.004-0.959
	c0.785,0,1.382,0.208,1.791,0.626s0.637,0.985,0.687,1.703h2.551l0.019-0.056c-0.019-1.305-0.465-2.358-1.341-3.159
	C8.295,1.17,7.035,0.77,5.39,0.77c-1.583,0-2.877,0.515-3.883,1.544C0.502,3.344,0,4.676,0,6.309v2.82
	c0,1.639,0.522,2.972,1.568,3.999c1.045,1.026,2.394,1.54,4.045,1.54c1.299,0,2.374-0.207,3.224-0.622
	c0.851-0.415,1.477-0.888,1.879-1.419V7.533z"/>
<path fill="#FFFFFF" d="M12.404,9.556c0,1.509,0.419,2.738,1.257,3.688c0.838,0.95,2,1.424,3.484,1.424
	c1.478,0,2.636-0.475,3.475-1.424c0.838-0.949,1.257-2.179,1.257-3.688V9.361c0-1.503-0.42-2.73-1.262-3.683
	s-2.004-1.429-3.488-1.429c-1.479,0-2.635,0.478-3.47,1.433s-1.252,2.182-1.252,3.679V9.556z M15.104,9.356
	c0-0.883,0.162-1.607,0.487-2.172s0.836-0.848,1.536-0.848c0.705,0,1.222,0.281,1.549,0.843s0.492,1.288,0.492,2.177v0.194
	c0,0.908-0.162,1.64-0.487,2.195c-0.325,0.556-0.837,0.834-1.536,0.834c-0.718,0-1.237-0.276-1.559-0.829
	c-0.322-0.553-0.482-1.286-0.482-2.2V9.356z"/>
<path fill="#FFFFFF" d="M23.128,9.556c0,1.509,0.419,2.738,1.257,3.688c0.838,0.95,1.999,1.424,3.483,1.424
	c1.478,0,2.636-0.475,3.475-1.424c0.838-0.949,1.257-2.179,1.257-3.688V9.361c0-1.503-0.42-2.73-1.262-3.683
	s-2.004-1.429-3.488-1.429c-1.478,0-2.635,0.478-3.47,1.433s-1.252,2.182-1.252,3.679V9.556z M25.828,9.356
	c0-0.883,0.162-1.607,0.487-2.172s0.837-0.848,1.536-0.848c0.705,0,1.222,0.281,1.549,0.843s0.492,1.288,0.492,2.177v0.194
	c0,0.908-0.163,1.64-0.487,2.195c-0.325,0.556-0.837,0.834-1.536,0.834c-0.717,0-1.237-0.276-1.559-0.829
	c-0.322-0.553-0.482-1.286-0.482-2.2V9.356z"/>
<path fill="#FFFFFF" d="M33.853,9.732c0,1.484,0.342,2.678,1.025,3.581c0.684,0.903,1.641,1.354,2.872,1.354
	c0.557,0,1.05-0.121,1.479-0.362c0.43-0.241,0.803-0.594,1.118-1.058l0.223,1.225h2.329V0H40.18v5.501
	c-0.303-0.402-0.656-0.711-1.058-0.928c-0.402-0.217-0.854-0.325-1.354-0.325c-1.243,0-2.207,0.485-2.89,1.457
	c-0.683,0.971-1.025,2.248-1.025,3.832V9.732z M36.553,9.538c0-0.952,0.153-1.724,0.459-2.314c0.307-0.591,0.79-0.887,1.452-0.887
	c0.383,0,0.719,0.088,1.006,0.266c0.288,0.178,0.524,0.425,0.71,0.742v4.303c-0.186,0.305-0.424,0.536-0.714,0.695
	c-0.291,0.159-0.631,0.238-1.021,0.238c-0.668,0-1.15-0.253-1.447-0.761s-0.445-1.202-0.445-2.086V9.538z"/>
<path fill="#FFFFFF" d="M60.869,0.965h-2.7v9.212l-0.056,0.009l-5.455-9.222h-2.709v13.508h2.709V5.251l0.056-0.009l5.455,9.231h2.7
	V0.965z"/>
<path fill="#FFFFFF" d="M69.831,14.336c0.662-0.22,1.197-0.499,1.605-0.834l-0.733-1.674c-0.47,0.26-0.903,0.45-1.299,0.57
	c-0.396,0.121-0.894,0.181-1.494,0.181c-0.674,0-1.208-0.213-1.6-0.638c-0.393-0.425-0.614-0.967-0.664-1.626l0.019-0.055h5.993
	V8.786c0-1.392-0.374-2.496-1.123-3.312s-1.8-1.225-3.154-1.225c-1.379-0.006-2.479,0.473-3.298,1.438
	c-0.819,0.965-1.229,2.192-1.229,3.683v0.371c0,1.429,0.433,2.607,1.299,3.535c0.866,0.928,2.022,1.392,3.47,1.392
	C68.433,14.667,69.168,14.557,69.831,14.336z M68.602,6.851c0.269,0.343,0.403,0.803,0.403,1.378V8.47h-3.321l-0.028-0.046
	c0.068-0.625,0.247-1.129,0.538-1.512c0.291-0.384,0.687-0.575,1.188-0.575C67.926,6.336,68.332,6.508,68.602,6.851z"/>
<path fill="#FFFFFF" d="M80.073,4.435h-1.809l-1.874,6.429h-0.056l-1.327-6.429h-2.542l2.551,10.038h2.254l1.865-5.975h0.056
	l1.865,5.975h2.264l2.551-10.038h-2.542l-1.308,6.448h-0.056L80.073,4.435z"/>
<path fill="#FFFFFF" d="M92.249,12.515c-0.263,0.198-0.645,0.297-1.146,0.297c-0.538,0-0.974-0.121-1.308-0.362
	s-0.51-0.631-0.529-1.169H86.79l-0.019,0.056c-0.037,0.866,0.333,1.637,1.108,2.314c0.776,0.677,1.833,1.016,3.168,1.016
	c1.268,0,2.288-0.286,3.062-0.858c0.773-0.572,1.16-1.31,1.16-2.212c0-0.841-0.3-1.501-0.9-1.981c-0.6-0.479-1.519-0.843-2.755-1.09
	c-0.804-0.155-1.337-0.331-1.6-0.529c-0.263-0.198-0.395-0.452-0.395-0.761c0-0.322,0.125-0.589,0.375-0.803s0.595-0.32,1.035-0.32
	c0.495,0,0.871,0.126,1.127,0.38c0.256,0.253,0.385,0.581,0.385,0.983h2.616l0.019-0.056c0.031-0.916-0.333-1.673-1.09-2.273
	c-0.757-0.6-1.776-0.9-3.057-0.9c-1.219,0-2.191,0.301-2.918,0.904c-0.727,0.603-1.09,1.337-1.09,2.204
	c0,0.816,0.302,1.461,0.905,1.934c0.603,0.473,1.498,0.831,2.686,1.072c0.779,0.167,1.313,0.358,1.6,0.575
	c0.288,0.216,0.432,0.473,0.432,0.77C92.644,12.048,92.512,12.317,92.249,12.515z"/>
</svg>
