<?xml version="1.0" encoding="utf-8"?>
<!-- Generator: Adobe Illustrator 16.0.0, SVG Export Plug-In . SVG Version: 6.00 Build 0)  -->
<!DOCTYPE svg PUBLIC "-//W3C//DTD SVG 1.1//EN" "http://www.w3.org/Graphics/SVG/1.1/DTD/svg11.dtd">
<svg version="1.1" id="Layer_1" xmlns="http://www.w3.org/2000/svg" xmlns:xlink="http://www.w3.org/1999/xlink" x="0px" y="0px"
	 width="232.98px" height="40.004px" viewBox="0 0 232.98 40.004" enable-background="new 0 0 232.98 40.004" xml:space="preserve">
<path fill="#FFFFFF" d="M58.554,13.157L45.813,1.496c-0.369-0.369-2.946-2.689-7.56-0.699C33.264,2.95,4.292,14.191,4,14.305
	c-0.115,0.043-0.217,0.107-0.305,0.183c-0.297,0.164-0.596,0.359-0.896,0.589c-3.274,2.516-3.691,6.418-1.172,10.99
	c3.397,6.165,11.675,13.121,16.097,13.817c0.284,0.044,0.554,0.063,0.805,0.055c0.064,0.024,0.13,0.042,0.198,0.053
	c0.172,0.026,0.353,0.008,0.524-0.06L55.14,25.578c0.128-0.052,0.245-0.129,0.342-0.229c0.079-0.079,1.91-1.981,1.507-4.504
	c-0.25-1.563-1.278-2.958-3.062-4.155l4.324-1.794c0.329-0.136,0.566-0.433,0.628-0.785C58.94,13.757,58.818,13.398,58.554,13.157z
	 M3.443,25.053c-2.015-3.657-1.807-6.455,0.615-8.316c2.835-2.177,5.168,0.514,5.422,0.825c0.021,0.026,0.044,0.051,0.066,0.075
	l1.139,1.169L5.99,20.435c-0.49,0.17-0.769,0.687-0.645,1.192c0.06,0.246,1.575,6.06,10.009,10.324
	c2.121,1.073,4.398,2.319,4.563,3.545c0.101,0.734-0.563,1.619-1.275,2.34c-0.035,0-0.071,0.004-0.106,0.008
	C15.899,38.168,7.116,31.717,3.443,25.053z M51.614,17.659c2.017,1.039,3.192,2.248,3.398,3.492
	c0.202,1.217-0.537,2.278-0.834,2.647L21.738,36.774c0.178-0.526,0.23-1.04,0.162-1.547c-0.296-2.201-2.733-3.599-5.647-5.072
	c-5.704-2.884-7.9-6.525-8.638-8.155l4.623-1.604l8.946,9.174c0.295,0.303,0.745,0.396,1.136,0.234l29.285-12.151
	C51.608,17.655,51.612,17.657,51.614,17.659z M22.175,27.604L11.064,16.208c-0.448-0.545-1.13-1.166-1.977-1.641
	c8.357-3.251,26.093-10.17,29.984-11.849c3.491-1.507,5.201,0.182,5.261,0.244c0.021,0.021,0.041,0.042,0.063,0.062l11.547,10.569
	L22.175,27.604z"/>
<path fill="#FFFFFF" d="M40.18,16.495l-8.284-8.432l9.39-3.875l8.645,8.243L40.18,16.495z"/>
<path fill="#FFFFFF" d="M35.642,16.045c0.213,0.536-0.046,1.144-0.579,1.358l-13.041,5.24c-0.532,0.213-1.137-0.047-1.35-0.583
	c-0.213-0.535,0.047-1.145,0.579-1.358l13.041-5.24c0.179-0.073,0.367-0.09,0.545-0.063C35.187,15.455,35.5,15.689,35.642,16.045z"
	/>
<path fill="#FFFFFF" d="M30.583,12.688L17.542,17.93c-0.533,0.214-1.136-0.047-1.35-0.583c-0.213-0.535,0.047-1.144,0.58-1.358
	l13.04-5.24c0.18-0.073,0.369-0.09,0.546-0.063c0.35,0.056,0.664,0.29,0.805,0.645C31.375,11.867,31.115,12.474,30.583,12.688z"/>
<path fill="#FFFFFF" d="M77.721,16.728h6.69V23.6c-1.46,1.469-4.123,2.323-6.172,2.323c-5.395,0-8.599-3.389-8.599-8.555
	c0-4.763,3.181-8.554,8.222-8.554c2.356,0,3.958,0.616,5.3,1.683l-1.225,2.322c-0.825-0.782-2.285-1.279-3.722-1.279
	c-3.18,0-5.512,2.132-5.512,5.829c0,3.531,2.238,5.829,5.583,5.829c1.272,0,2.804-0.545,3.416-1.137v-2.606h-3.981V16.728z"/>
<path fill="#FFFFFF" d="M97.7,8.813c4.899,0,8.598,3.389,8.598,8.554c0,4.976-3.699,8.555-8.598,8.555
	c-4.9,0-8.575-3.389-8.575-8.555C89.125,12.558,92.635,8.813,97.7,8.813z M97.7,23.197c3.463,0,5.536-2.559,5.536-5.829
	c0-3.436-2.426-5.829-5.536-5.829c-3.157,0-5.513,2.393-5.513,5.829C92.187,20.685,94.614,23.197,97.7,23.197z"/>
<path fill="#FFFFFF" d="M119.351,8.813c4.9,0,8.599,3.389,8.599,8.554c0,4.976-3.699,8.555-8.599,8.555s-8.575-3.389-8.575-8.555
	C110.776,12.558,114.286,8.813,119.351,8.813z M119.351,23.197c3.463,0,5.536-2.559,5.536-5.829c0-3.436-2.426-5.829-5.536-5.829
	c-3.156,0-5.512,2.393-5.512,5.829C113.838,20.685,116.265,23.197,119.351,23.197z"/>
<path fill="#FFFFFF" d="M133.652,9.074h0.307c0.989,0,3.345-0.071,4.546-0.071c6.596,0,9.258,3.815,9.258,8.199
	c0,4.668-3.157,8.507-9.446,8.507c-0.989,0-2.827-0.047-4.334-0.047h-0.33V9.074z M136.55,11.8v11.137
	c0.801,0.047,1.46,0.047,1.861,0.047c3.981,0,6.29-2.275,6.29-5.782c0-3.341-2.309-5.474-6.243-5.474
	C137.775,11.728,137.209,11.752,136.55,11.8z"/>
<path fill="#FFFFFF" d="M172.595,25.662l-9.07-11.493v11.493h-2.709V9.074h2.309l9.069,11.54V9.074h2.709v16.587H172.595z"/>
<path fill="#FFFFFF" d="M181.832,9.074h9.541V11.8h-6.643v4.123h5.937v2.725h-5.937v4.289h6.879v2.725h-9.776V9.074z"/>
<path fill="#FFFFFF" d="M213.825,25.662h-2.709l-3.981-11.991l-3.91,11.991h-2.733l-4.924-16.587h3.251l3.321,11.825l3.675-11.825
	h2.875l3.769,11.848l3.299-11.848h2.779L213.825,25.662z"/>
<path fill="#FFFFFF" d="M222.449,13.387c0-2.488,1.932-4.574,5.136-4.574c2.026,0,3.722,0.688,4.712,1.777l-1.555,2.18
	c-0.801-0.782-1.602-1.232-2.921-1.232c-1.437,0-2.309,0.735-2.309,1.825c0,3.436,7.468,2.346,7.468,7.867
	c0,2.796-2.427,4.692-5.513,4.692c-2.12,0-4.593-0.924-5.394-2.607l1.649-1.99c0.966,1.256,2.521,1.872,3.792,1.872
	c1.367,0,2.403-0.687,2.403-1.943C229.917,17.984,222.449,18.79,222.449,13.387z"/>
</svg>
